:FULLY-SPECIFIED
:FORCE-ALL-JOINTS-BE-3DOF
:DEGREES
408
root 4.40644 16.1963 -11.3454 3.32498 -34.9769 -3.6402
lfemur -30.4258 3.76858 -7.37271
ltibia 42.5158 -0 0
lfoot -10.31 13.8738 0.355843
ltoes -2.16111 0 0
rfemur -32.7041 -22.0086 23.838
rtibia 80.3368 -0 0
rfoot 5.3423 -7.02323 0.0919389
rtoes 33.8871 -0 0
lowerback 4.85465 4.40482 0.140771
upperback 1.48684 5.83433 -1.77252
thorax -0.995195 2.91022 -2.20714
lowerneck -6.30222 1.77398 7.1176
upperneck 4.04247 1.68121 1.16765
head 2.4315 0.981876 -0.788169
lclavicle 7.95139e-015 1.59028e-014 0
lhumerus -45.1419 -19.15 94.2404
lradius 51.611 -0 0
lwrist 18.9865 0 0
lhand -16.5812 3.96931 -0.00452839
lfingers 7.12502 -0 0
lthumb 9.63954 33.7314 -0.00405248
rclavicle 7.95139e-015 1.59028e-014 0
rhumerus -45.9086 9.43207 -92.1747
rradius 62.6469 -0 0
rwrist 8.35275 0 0
rhand -20.029 -19.0862 0.154065
rfingers 7.12502 -0 0
rthumb 6.31198 -48.9297 0.145819
409
root 4.31739 16.1629 -11.2724 3.3809 -34.4783 -3.91998
lfemur -30.5619 3.69097 -6.83437
ltibia 42.8621 -0 0
lfoot -10.9055 13.3308 0.46537
ltoes -2.865 0 0
rfemur -32.2074 -21.3518 23.0203
rtibia 79.3586 -0 0
rfoot 4.88922 -7.10392 0.105915
rtoes 31.4942 -0 0
lowerback 4.89282 4.33389 0.258067
upperback 1.47712 5.74672 -1.72474
thorax -1.0276 2.86569 -2.21971
lowerneck -6.29828 1.81559 7.17554
upperneck 4.0579 1.73535 1.11491
head 2.43758 1.00805 -0.813133
lclavicle 7.95139e-015 1.59028e-014 0
lhumerus -45.0456 -19.4477 94.3059
lradius 51.5885 -0 0
lwrist 18.724 0 0
lhand -16.5447 3.90794 -0.00619763
lfingers 7.12502 -0 0
lthumb 9.67481 33.6689 -0.0056007
rclavicle 7.95139e-015 1.59028e-014 0
rhumerus -46.0783 9.04072 -92.1132
rradius 62.8534 -0 0
rwrist 8.48991 0 0
rhand -20.6131 -19.4138 0.196539
rfingers 7.12502 -0 0
rthumb 5.74811 -49.2606 0.186151
410
root 4.22835 16.1294 -11.1995 3.4516 -33.9132 -4.22731
lfemur -30.7365 3.64978 -6.25219
ltibia 43.2994 -0 0
lfoot -11.5548 12.7057 0.577082
ltoes -3.60081 0 0
rfemur -31.6746 -20.5932 22.1606
rtibia 78.2181 -0 0
rfoot 4.33217 -7.17558 0.116306
rtoes 28.8702 -0 0
lowerback 4.93639 4.25105 0.391825
upperback 1.46971 5.64437 -1.66718
thorax -1.061 2.81376 -2.23079
lowerneck -6.29729 1.85581 7.2303
upperneck 4.06448 1.78801 1.0595
head 2.4413 1.03321 -0.838412
lclavicle 7.95139e-015 1.59028e-014 0
lhumerus -44.9301 -19.7796 94.3765
lradius 51.5749 -0 0
lwrist 18.4429 0 0
lhand -16.5143 3.84233 -0.00800345
lfingers 7.12502 -0 0
lthumb 9.70414 33.6024 -0.00728792
rclavicle 7.95139e-015 1.59028e-014 0
rhumerus -46.2427 8.62413 -92.0507
rradius 63.0761 -0 0
rwrist 8.64072 0 0
rhand -21.2226 -19.7694 0.23855
rfingers 7.12502 -0 0
rthumb 5.15973 -49.6184 0.226077
411
root 4.13931 16.096 -11.1265 3.53459 -33.2843 -4.55863
lfemur -30.9466 3.6437 -5.63172
ltibia 43.8201 -0 0
lfoot -12.2528 12.0054 0.687931
ltoes -4.36329 0 0
rfemur -31.1131 -19.7399 21.2676
rtibia 76.9291 -0 0
rfoot 3.68186 -7.23865 0.123256
rtoes 26.0361 -0 0
lowerback 4.98452 4.1572 0.540591
upperback 1.4643 5.52843 -1.60058
thorax -1.09523 2.755 -2.24038
lowerneck -6.29916 1.89431 7.28172
upperneck 4.06283 1.83873 1.00172
head 2.44285 1.05715 -0.8639
lclavicle 7.95139e-015 1.59028e-014 0
lhumerus -44.7972 -20.1426 94.4521
lradius 51.5697 -0 0
lwrist 18.1446 0 0
lhand -16.4899 3.77224 -0.0099078
lfingers 7.12502 -0 0
lthumb 9.72772 33.5316 -0.00907752
rclavicle 7.95139e-015 1.59028e-014 0
rhumerus -46.402 8.18478 -91.9869
rradius 63.3131 -0 0
rwrist 8.80386 0 0
rhand -21.8544 -20.1503 0.279149
rfingers 7.12502 -0 0
rthumb 4.54976 -50.0007 0.264692
412
root 4.05026 16.0626 -11.0535 3.62739 -32.594 -4.91048
lfemur -31.1892 3.67142 -4.97856
ltibia 44.4166 -0 0
lfoot -12.9942 11.2369 0.794961
ltoes -5.14716 0 0
rfemur -30.5301 -18.7991 20.3497
rtibia 75.5056 -0 0
rfoot 2.949 -7.29351 0.126972
rtoes 23.0131 -0 0
lowerback 5.03639 4.05322 0.702914
upperback 1.46058 5.40001 -1.52566
thorax -1.13014 2.68998 -2.24847
lowerneck -6.30379 1.93077 7.32964
upperneck 4.05355 1.88705 0.941901
head 2.44238 1.07966 -0.88949
lclavicle 7.95139e-015 1.59028e-014 0
lhumerus -44.6489 -20.5332 94.5322
lradius 51.5722 -0 0
lwrist 17.8305 0 0
lhand -16.4712 3.69743 -0.0118733
lfingers 7.12502 -0 0
lthumb 9.74574 33.4563 -0.0109335
rclavicle 7.95139e-015 1.59028e-014 0
rhumerus -46.557 7.7251 -91.9213
rradius 63.5625 -0 0
rwrist 8.978 0 0
rhand -22.5055 -20.5542 0.317454
rfingers 7.12502 -0 0
rthumb 3.92116 -50.405 0.301154
413
root 3.96122 16.0291 -10.9805 3.72762 -31.8448 -5.27944
lfemur -31.4612 3.73154 -4.29836
ltibia 45.0812 -0 0
lfoot -13.7739 10.4074 0.895377
ltoes -5.94717 0 0
rfemur -29.9321 -17.7785 19.4146
rtibia 73.9613 -0 0
rfoot 2.14431 -7.34057 0.127705
rtoes 19.8225 -0 0
lowerback 5.09117 3.93999 0.877347
upperback 1.45822 5.26026 -1.44316
thorax -1.16554 2.61928 -2.25505
lowerneck -6.31108 1.96484 7.37389
upperneck 4.03726 1.93248 0.880351
head 2.44008 1.10054 -0.915077
lclavicle 7.95139e-015 1.59028e-014 0
lhumerus -44.487 -20.9485 94.6167
lradius 51.5818 -0 0
lwrist 17.502 0 0
lhand -16.4581 3.61766 -0.0138635
lfingers 7.12502 -0 0
lthumb 9.75838 33.3762 -0.0128204
rclavicle 7.95139e-015 1.59028e-014 0
rhumerus -46.708 7.24757 -91.8535
rradius 63.8225 -0 0
rwrist 9.16181 0 0
rhand -23.1728 -20.9784 0.352655
rfingers 7.12502 -0 0
rthumb 3.2769 -50.8289 0.33469
414
root 3.87217 15.9957 -10.9076 3.83298 -31.0393 -5.66221
lfemur -31.7595 3.82262 -3.59679
ltibia 45.8066 -0 0
lfoot -14.5867 9.52389 0.986599
ltoes -6.75804 0 0
rfemur -29.325 -16.6858 18.4697
rtibia 72.3102 -0 0
rfoot 1.2785 -7.38022 0.125745
rtoes 16.4854 -0 0
lowerback 5.14804 3.8184 1.06244
upperback 1.45691 5.11029 -1.35382
thorax -1.20129 2.54346 -2.26012
lowerneck -6.32093 1.99621 7.41432
upperneck 4.01458 1.97458 0.817391
head 2.4361 1.11956 -0.940554
lclavicle 7.95139e-015 1.59028e-014 0
lhumerus -44.3136 -21.3852 94.7052
lradius 51.598 -0 0
lwrist 17.1606 0 0
lhand -16.4504 3.53269 -0.0158424
lfingers 7.12502 -0 0
lthumb 9.76583 33.2911 -0.0147038
rclavicle 7.95139e-015 1.59028e-014 0
rhumerus -46.8555 6.75463 -91.7833
rradius 64.0911 -0 0
rwrist 9.35397 0 0
rhand -23.8532 -21.4204 0.38403
rfingers 7.12502 -0 0
rthumb 2.61995 -51.2698 0.364612
415
root 3.78313 15.9623 -10.8346 3.94132 -30.1801 -6.05561
lfemur -32.0812 3.94311 -2.87954
ltibia 46.585 -0 0
lfoot -15.427 8.59376 1.06631
ltoes -7.57451 0 0
rfemur -28.714 -15.5292 17.5218
rtibia 70.5662 -0 0
rfoot 0.362278 -7.41284 0.121411
rtoes 13.0231 -0 0
lowerback 5.20618 3.68935 1.25676
upperback 1.45633 4.95125 -1.25836
thorax -1.23721 2.46311 -2.26367
lowerneck -6.33324 2.02455 7.45076
upperneck 3.98613 2.01289 0.753341
head 2.43062 1.13654 -0.965814
lclavicle 7.95139e-015 1.59028e-014 0
lhumerus -44.1304 -21.84 94.7976
lradius 51.6202 -0 0
lwrist 16.8075 0 0
lhand -16.4479 3.44229 -0.0177752
lfingers 7.12502 -0 0
lthumb 9.76828 33.2007 -0.0165496
rclavicle 7.95139e-015 1.59028e-014 0
rhumerus -47 6.24875 -91.7101
rradius 64.3666 -0 0
rwrist 9.55314 0 0
rhand -24.5436 -21.8776 0.410951
rfingers 7.12502 -0 0
rthumb 1.95331 -51.7253 0.390319
